<?xml version="1.0" encoding="UTF-8"?>
<!-- Generator: Adobe Illustrator 15.0.0, SVG Export Plug-In  -->
<!DOCTYPE svg PUBLIC "-//W3C//DTD SVG 1.1//EN" "http://www.w3.org/Graphics/SVG/1.1/DTD/svg11.dtd" [
	<!ENTITY ns_flows "http://ns.adobe.com/Flows/1.0/">
]>
<svg version="1.1" xmlns="http://www.w3.org/2000/svg" xmlns:xlink="http://www.w3.org/1999/xlink" xmlns:a="http://ns.adobe.com/AdobeSVGViewerExtensions/3.0/" x="0px" y="0px" width="51px" height="56px" viewBox="0 0 51 56" overflow="visible" enable-background="new 0 0 51 56" xml:space="preserve">
<defs>
</defs>
<path fill="#FFFFFF" d="M34.803,45.323c0-0.003,1.117-0.194,2.17-0.24c0.715-1.391,2.391-4.869,3.96-9.284  c1.896-5.341-1.406-11.691-1.814-14.088c-0.411-2.398-0.557-4.805-0.557-4.805l-0.874-0.658c0,0-5.504,9.298-5.959,14.77  C31.276,36.496,34.803,45.323,34.803,45.323z"/>
<path fill="#FFFFFF" d="M28.012,40.161C23.6,37.648,18.56,34.626,15.032,28.75c-4.245-7.076-2.19-17.002-2.47-20.531  c-0.278-3.531-0.932-6.979-0.932-6.979L12.628,0c0,0,11.095,11.15,13.688,18.719C28.911,26.285,25.529,34.251,28.012,40.161z"/>
<path fill="#FFFFFF" d="M30.78,46.208c-3.356,0.954-9.027,4.598-14.976,2.577c-5.946-2.021-15.779-10.56-15.779-10.56L0,36.768  c0,0,7.679-0.773,12.557,0.224C17.939,38.095,23.613,43.754,30.78,46.208z"/>
<path fill="#FFFFFF" d="M24.604,56c0,0,3.234-1.134,6.074-1.152c2.952-0.02,6.958,1.647,10.86-0.042  c3.766-1.629,4.962-3.178,7.483-5.188c0.603-0.927,0.965-1.527,1.58-2.542c-5.29,2.499-12.455-0.175-17.955,1.86  C27.837,50.715,24.604,56,24.604,56z"/>
</svg>