<?xml version="1.0" encoding="UTF-8"?>
<!-- Generator: Adobe Illustrator 15.1.0, SVG Export Plug-In . SVG Version: 6.00 Build 0)  -->
<!DOCTYPE svg PUBLIC "-//W3C//DTD SVG 1.1//EN" "http://www.w3.org/Graphics/SVG/1.1/DTD/svg11.dtd">
<svg version="1.1" id="Layer_1" xmlns="http://www.w3.org/2000/svg" xmlns:xlink="http://www.w3.org/1999/xlink" x="0px" y="0px" width="300px" height="41px" viewBox="0 0 300 41" enable-background="new 0 0 300 41" xml:space="preserve">
<g>
	<path fill="#222222" d="M65.455,31.615h-6.754l-1.967-5.688h-9.918l-1.924,5.688h-6.755l9.491-26.721h8.508L65.455,31.615z    M51.817,10.152l-3.548,10.475h6.968L51.817,10.152z"/>
	<path fill="#222222" d="M78.872,31.615V19.858c0-2.395-1.069-3.164-2.822-3.164c-1.454,0-2.736,0.727-3.592,1.496v13.425h-6.584   V12.076l6.584-0.812c0,0,0,2.95,0,3.249c1.754-2.01,4.104-3.42,6.67-3.42c3.976,0,6.327,2.607,6.327,6.841v13.681H78.872z"/>
	<path fill="#222222" d="M94.357,31.615V4.895h19.539v5.472h-12.869v5.131h10.346v5.43h-10.346v5.217h12.869v5.473H94.357V31.615z"/>
	<path fill="#222222" d="M129.073,31.656h-7.438l-7.354-19.921h7.053l4.105,13.637l4.061-13.637h7.097L129.073,31.656z"/>
	<path fill="#222222" d="M142.317,22.979c0.257,2.692,2.309,4.189,5.387,4.189c2.053,0,4.36-0.598,6.373-1.753l0.938,5.173   c-2.01,1.027-4.833,1.625-7.739,1.625c-6.712,0-11.415-3.763-11.415-10.389c0-6.499,4.446-10.73,10.773-10.73   c5.645,0,8.723,3.377,8.723,8.336c0,1.069-0.17,2.479-0.428,3.333l-12.613,0.131V22.979z M149.243,19.772c0-0.086,0-0.215,0-0.3   c0-2.352-0.982-3.933-3.036-3.933c-2.265,0-3.633,2.051-3.847,4.275L149.243,19.772z"/>
	<path fill="#222222" d="M170.535,31.615V19.858c0-2.395-1.066-3.164-2.822-3.164c-1.451,0-2.734,0.727-3.59,1.496v13.425h-6.584   V12.076l6.584-0.812c0,0,0,2.95,0,3.249c1.753-2.01,4.104-3.42,6.67-3.42c3.977,0,6.328,2.607,6.328,6.841v13.681H170.535z"/>
	<path fill="#222222" d="M226.818,31.615h-6.754l-1.969-5.688h-9.916l-1.925,5.688H199.5l9.491-26.721h8.506L226.818,31.615z    M213.182,10.152l-3.549,10.475h6.969L213.182,10.152z"/>
	<path fill="#222222" d="M239.314,11.094c4.918,0,8.506,4.019,8.506,10.346c0,6.584-4.572,10.773-9.959,10.773   c-1.325,0-2.863-0.257-4.104-0.641v8.891h-6.584V12.076l6.584-0.812c0,0,0,2.437,0,2.522   C234.998,12.504,236.791,11.094,239.314,11.094z M233.757,26.484c0.769,0.513,1.796,0.812,3.034,0.812   c2.82,0,4.447-2.223,4.447-5.516c0-3.418-1.453-5.429-4.147-5.429c-1.452,0-2.437,0.556-3.334,1.368   C233.757,17.678,233.757,26.484,233.757,26.484z"/>
	<path fill="#222222" d="M260.307,19.302c0-2.094-1.068-3.035-3.506-3.035c-2.053,0-4.787,1.025-6.755,2.009l-1.368-4.831   c2.094-1.111,5.387-2.351,9.149-2.351c6.884,0,9.065,3.078,9.065,8.636v6.284c0,2.438,0.639,3.678,2.135,5.217l-6.498,1.026   c-1.155-0.558-1.922-1.926-2.094-3.037h-0.131c-1.41,1.667-3.332,3.037-5.941,3.037c-3.547,0-5.812-2.481-5.812-5.474   c0-3.848,2.82-6.84,11.756-7.054V19.302L260.307,19.302z M260.307,22.509c-4.062,0.599-5.559,1.538-5.559,3.292   c0,1.281,1.025,2.053,2.523,2.053c1.281,0,2.352-0.516,3.033-1.197v-4.147H260.307z"/>
	<path fill="#222222" d="M276.768,31.615h-6.584V12.076l6.584-0.812v3.334c1.111-2.137,2.564-3.42,4.789-3.505   c1.195,0,2.523,0.256,3.59,0.854l-1.326,5.9c-0.77-0.385-1.625-0.6-2.521-0.6c-1.624,0-3.333,0.898-4.529,3.164v11.204H276.768z"/>
	<path fill="#222222" d="M295.664,32.257c-4.918,0-7.566-2.011-7.311-7.227l0.299-7.566l-2.992-0.514l0.912-4.447l2.209-0.726   l0.084-4.531h6.371l-0.043,4.745h4.959l-0.129,5.173h-5.301l-0.213,7.141c-0.086,1.838,0.983,2.607,2.606,2.607   c0.812,0,1.71-0.215,2.608-0.514l0.771,5.129C298.957,31.998,297.675,32.257,295.664,32.257z"/>
	<path fill="#222222" d="M188.369,32.257c-4.916,0-7.567-2.011-7.311-7.227l0.299-7.566l-2.992-0.514l0.914-4.447l2.207-0.726   l0.086-4.531h6.371l-0.045,4.745h4.959l-0.129,5.173h-5.299l-0.216,7.141c-0.086,1.838,0.981,2.607,2.609,2.607   c0.812,0,1.708-0.215,2.606-0.514l0.77,5.129C191.661,31.998,190.379,32.257,188.369,32.257z"/>
</g>
<path fill="#978E51" d="M26.377,32.172c0-0.001,0.852-0.109,1.651-0.107c0.587-1.03,1.972-3.607,3.307-6.899  c1.615-3.979-0.675-8.897-0.904-10.727c-0.231-1.83-0.261-3.656-0.261-3.656l-0.639-0.527c0,0-4.479,6.856-5.005,10.984  C24.001,25.371,26.377,32.172,26.377,32.172z"/>
<path fill="#978E51" d="M21.192,27.305c-2.903-1.828-6.215-4.018-8.421-8.088c-2.655-4.902-0.972-11.542-1.056-13.932  c-0.083-2.392-0.421-4.739-0.421-4.739l0.71-0.807c0,0,7.156,7.855,8.683,13.042C22.211,17.966,19.692,23.242,21.192,27.305z"/>
<path fill="#978E51" d="M23.517,32.598c-2.573,0.609-6.988,3.18-11.424,1.45C7.657,32.32,0.496,25.527,0.496,25.527l0.03-1.104  c0,0,5.839-0.329,9.5,0.588C14.064,26.025,18.172,30.5,23.517,32.598z"/>
<path fill="#978E51" d="M17.175,40.203c0,0,2.487-0.751,4.638-0.671c2.236,0.084,5.094,1.101,8.225,0.331  c5.596-1.377,6.621-4.803,7.12-5.551c-4.089,1.715-9.424-0.547-13.657,0.811C19.8,36.309,17.175,40.203,17.175,40.203z"/>
</svg>