<?xml version="1.0" encoding="UTF-8"?>
<!-- Generator: Adobe Illustrator 15.1.0, SVG Export Plug-In . SVG Version: 6.00 Build 0)  -->
<!DOCTYPE svg PUBLIC "-//W3C//DTD SVG 1.1//EN" "http://www.w3.org/Graphics/SVG/1.1/DTD/svg11.dtd">
<svg version="1.1" id="Layer_1" xmlns="http://www.w3.org/2000/svg" xmlns:xlink="http://www.w3.org/1999/xlink" x="0px" y="0px" width="276px" height="61px" viewBox="0 0 276 61" enable-background="new 0 0 276 61" xml:space="preserve">
<path fill="#FFFFFF" d="M244.448,0c-0.478,0-0.907,0.298-1.074,0.745c-0.256,0.688-0.476,1.824-0.595,2.715  c-0.573,0.076-0.854,0.111-1.428,0.188c-0.346-0.834-0.854-1.875-1.275-2.47c-0.277-0.389-0.77-0.562-1.229-0.441l-2.127,0.57  c-0.461,0.125-0.797,0.52-0.844,1c-0.02,0.188-0.023,0.404-0.023,0.639c0,0.674,0.068,1.473,0.154,2.135  c-0.537,0.221-0.798,0.332-1.334,0.551c-0.548-0.713-1.301-1.582-1.865-2.052c-0.369-0.308-0.891-0.351-1.307-0.112l-1.904,1.098  c-0.358,0.209-0.576,0.589-0.576,0.993c0,0.063,0.008,0.129,0.018,0.19c0.122,0.719,0.5,1.815,0.843,2.65  c-0.46,0.352-0.684,0.525-1.144,0.878c-0.715-0.545-1.668-1.193-2.338-1.501c-0.436-0.203-0.95-0.108-1.289,0.23l-1.557,1.557  c-0.219,0.221-0.334,0.513-0.334,0.813c0,0.159,0.033,0.321,0.104,0.475c0.309,0.669,0.957,1.626,1.502,2.34  c-0.354,0.458-0.524,0.681-0.879,1.142c-0.83-0.346-1.923-0.722-2.646-0.846c-0.471-0.078-0.944,0.144-1.186,0.559l-1.099,1.906  c-0.103,0.176-0.153,0.375-0.153,0.572c0,0.264,0.09,0.52,0.264,0.73c0.465,0.562,1.339,1.322,2.056,1.873  c-0.224,0.533-0.33,0.794-0.552,1.332c-0.894-0.117-2.047-0.197-2.776-0.132c-0.478,0.045-0.875,0.384-0.998,0.847l-0.572,2.123  c-0.025,0.096-0.039,0.197-0.039,0.296c0,0.366,0.178,0.72,0.486,0.935c0.597,0.424,1.635,0.929,2.467,1.276  c-0.078,0.573-0.113,0.853-0.191,1.429c-0.891,0.117-2.027,0.336-2.711,0.594c-0.447,0.168-0.746,0.594-0.746,1.071v2.198  c0,0.48,0.301,0.912,0.746,1.079c0.689,0.252,1.82,0.472,2.711,0.589c0.078,0.576,0.113,0.855,0.191,1.432  c-0.83,0.344-1.863,0.847-2.467,1.27c-0.31,0.221-0.486,0.571-0.486,0.938c0,0.103,0.014,0.199,0.039,0.3l0.572,2.124  c0.123,0.465,0.521,0.798,1,0.845c0.729,0.065,1.882-0.017,2.771-0.132c0.226,0.535,0.332,0.8,0.554,1.334  c-0.718,0.55-1.591,1.311-2.054,1.869c-0.174,0.211-0.264,0.472-0.264,0.729c0,0.197,0.052,0.396,0.153,0.576l1.099,1.906  c0.241,0.412,0.715,0.639,1.188,0.556c0.721-0.124,1.812-0.501,2.644-0.846c0.353,0.463,0.524,0.685,0.879,1.144  c-0.548,0.715-1.193,1.672-1.502,2.336c-0.07,0.155-0.104,0.317-0.104,0.479c0,0.295,0.115,0.592,0.334,0.812l1.557,1.553  c0.339,0.342,0.854,0.435,1.289,0.233c0.664-0.305,1.623-0.95,2.338-1.499c0.46,0.354,0.684,0.523,1.144,0.877  c-0.343,0.838-0.721,1.932-0.843,2.649c-0.01,0.063-0.018,0.125-0.018,0.19c0,0.403,0.217,0.785,0.576,0.99l1.904,1.098  c0.414,0.242,0.936,0.197,1.305-0.107c0.563-0.467,1.319-1.341,1.867-2.053c0.536,0.221,0.797,0.328,1.334,0.549  c-0.086,0.666-0.154,1.46-0.154,2.137c0,0.234,0.006,0.45,0.023,0.639c0.047,0.479,0.383,0.879,0.846,1.006l2.125,0.563  c0.463,0.121,0.953-0.052,1.23-0.44c0.42-0.596,0.928-1.639,1.273-2.467c0.573,0.074,0.852,0.108,1.428,0.188  c0.119,0.891,0.338,2.023,0.594,2.713c0.167,0.447,0.598,0.745,1.074,0.745h2.201c0.479,0,0.908-0.298,1.076-0.745  c0.252-0.686,0.471-1.82,0.59-2.713c0.574-0.078,0.856-0.112,1.431-0.188c0.346,0.83,0.853,1.873,1.272,2.467  c0.274,0.39,0.77,0.562,1.229,0.44l2.126-0.563c0.465-0.127,0.804-0.526,0.848-1.006c0.018-0.186,0.023-0.395,0.023-0.625  c0-0.676-0.067-1.481-0.154-2.149c0.535-0.222,0.796-0.328,1.332-0.549c0.553,0.712,1.307,1.588,1.872,2.053  c0.371,0.306,0.886,0.351,1.304,0.108l1.901-1.101c0.358-0.204,0.571-0.585,0.571-0.989c0-0.064-0.004-0.129-0.014-0.191  c-0.121-0.721-0.5-1.814-0.847-2.646c0.464-0.354,0.687-0.524,1.149-0.877c0.711,0.547,1.67,1.19,2.334,1.498  c0.438,0.2,0.951,0.107,1.287-0.234l1.556-1.553c0.221-0.219,0.336-0.516,0.336-0.811c0-0.162-0.033-0.324-0.104-0.479  c-0.307-0.664-0.953-1.619-1.5-2.338c0.354-0.457,0.526-0.681,0.879-1.144c0.832,0.345,1.92,0.722,2.646,0.846  c0.475,0.083,0.945-0.144,1.188-0.56l1.099-1.902c0.104-0.181,0.151-0.379,0.151-0.576c0-0.258-0.088-0.519-0.263-0.729  c-0.463-0.562-1.34-1.319-2.054-1.869c0.222-0.534,0.329-0.799,0.553-1.334c0.895,0.115,2.044,0.197,2.77,0.132  c0.479-0.047,0.879-0.38,1.004-0.845l0.568-2.124c0.027-0.101,0.039-0.197,0.039-0.3c0-0.363-0.173-0.717-0.482-0.938  c-0.603-0.423-1.639-0.926-2.465-1.27c0.074-0.575,0.11-0.854,0.188-1.432c0.891-0.117,2.023-0.337,2.711-0.589  c0.45-0.167,0.749-0.597,0.749-1.079v-2.198c0-0.478-0.299-0.907-0.749-1.071c-0.684-0.258-1.82-0.477-2.714-0.594  c-0.074-0.576-0.11-0.855-0.188-1.429c0.83-0.348,1.865-0.853,2.465-1.273c0.311-0.218,0.485-0.571,0.485-0.938  c0-0.099-0.012-0.2-0.038-0.296l-0.568-2.123c-0.125-0.463-0.521-0.802-1.002-0.847c-0.729-0.065-1.879,0.015-2.771,0.132  c-0.224-0.538-0.331-0.799-0.553-1.332c0.711-0.551,1.582-1.307,2.054-1.869c0.175-0.213,0.263-0.471,0.263-0.734  c0-0.197-0.047-0.395-0.151-0.57l-1.099-1.905c-0.24-0.418-0.713-0.64-1.184-0.562c-0.73,0.124-1.82,0.5-2.648,0.846  c-0.354-0.461-0.526-0.684-0.879-1.145c0.551-0.719,1.199-1.68,1.498-2.337c0.072-0.155,0.105-0.315,0.105-0.475  c0-0.301-0.115-0.593-0.336-0.813l-1.555-1.557c-0.336-0.342-0.853-0.434-1.293-0.23c-0.664,0.308-1.617,0.956-2.33,1.501  c-0.463-0.353-0.686-0.526-1.148-0.878c0.346-0.835,0.725-1.927,0.848-2.648c0.01-0.063,0.014-0.129,0.014-0.192  c0-0.404-0.215-0.784-0.572-0.993l-1.9-1.098c-0.418-0.238-0.936-0.195-1.305,0.11c-0.562,0.462-1.32,1.337-1.872,2.054  c-0.536-0.221-0.797-0.33-1.332-0.553c0.087-0.668,0.154-1.471,0.154-2.146c0-0.23-0.007-0.442-0.022-0.625  c-0.045-0.48-0.384-0.877-0.847-1.004l-2.126-0.568c-0.462-0.125-0.954,0.051-1.23,0.443c-0.422,0.595-0.928,1.636-1.272,2.47  c-0.576-0.077-0.854-0.112-1.431-0.188c-0.119-0.895-0.338-2.029-0.59-2.715C247.557,0.298,247.128,0,246.648,0H244.448z"/>
<path fill="none" stroke="#343432" stroke-width="1.5445" d="M267.698,30.001c0,12.229-9.917,22.146-22.148,22.146  S223.4,42.23,223.4,30.001c0-12.235,9.918-22.152,22.149-22.152S267.698,17.766,267.698,30.001z"/>
<path fill="#343432" d="M256.479,40.826v-7.812h-2.598v7.812h-2.984V22.913h2.984v7.355h2.598v-7.355h2.983v17.913H256.479z"/>
<path fill="#343432" d="M234.904,25.507h0.041c0.812-1.047,1.9-1.82,3.447-1.82c1.742,0,2.812,1.065,2.812,2.711v4.588  c0,0.562,0.236,0.775,0.792,0.775h1.108v1.277h-5.785v-1.277h0.754c0.555,0,0.793-0.213,0.793-0.775v-4.434  c0-0.988-0.694-1.354-1.743-1.354c-1.03,0-2.22,1.064-2.22,2.769v3.02c0,0.562,0.238,0.775,0.793,0.775h0.771v1.277h-5.822v-1.277  h1.129c0.555,0,0.791-0.213,0.791-0.775v-9.914c0-0.561-0.236-0.773-0.791-0.773h-1.129v-1.28h4.258V25.507L234.904,25.507z"/>
<line fill="none" stroke="#343432" stroke-width="1.5" x1="250.469" y1="12.789" x2="242.329" y2="46.706"/>
<path fill="#FFFFFF" d="M164.077,36.107c0.162-0.077,0.287-0.11,0.546-0.078l3.91,0.382l0.475-3.589l-3.912-0.649v-0.001  c-0.182-0.027-0.335-0.097-0.5-0.24c-0.283-0.276-0.461-0.779-0.466-1.306c0.002-0.541,0.183-1.051,0.497-1.355  c0.135-0.114,0.286-0.183,0.463-0.21l0.024-0.005v0.002l0.007-0.002l0,0l3.884-0.646l-0.471-3.59l-3.925,0.386l-0.002-0.001H164.6  c-0.168,0.02-0.324,0.002-0.477-0.061l-0.079-0.039c-0.347-0.193-0.649-0.637-0.791-1.148c-0.136-0.52-0.094-1.055,0.128-1.428  c0.104-0.148,0.236-0.256,0.417-0.333l3.597-1.631l-1.386-3.346l-3.696,1.388v-0.002c-0.174,0.074-0.275,0.111-0.567,0.05  c-0.374-0.095-0.761-0.416-1.03-0.854c-0.308-0.512-0.41-1.102-0.266-1.492c0.062-0.161,0.162-0.293,0.304-0.402l-0.002-0.002  l0.003-0.002l0.001-0.002l3.047-2.504l-2.202-2.873l-3.213,2.3c-0.031,0.024-0.062,0.045-0.095,0.064l-0.021,0.013  c-0.106,0.06-0.226,0.096-0.435,0.114c-0.407,0-0.897-0.243-1.276-0.63c-0.362-0.381-0.576-0.842-0.57-1.271  c0.015-0.18,0.076-0.338,0.191-0.494l0.002-0.005l2.295-3.208l-2.869-2.205l-2.508,3.051V8.252  c-0.131,0.171-0.297,0.281-0.496,0.335c-0.375,0.094-0.889-0.006-1.33-0.252c-0.471-0.273-0.823-0.684-0.932-1.11  c-0.031-0.169-0.014-0.34,0.053-0.513l1.395-3.713l-3.344-1.385l-1.631,3.589l-0.002-0.001l-0.006,0.018  c-0.082,0.187-0.205,0.328-0.369,0.428c-0.34,0.199-0.888,0.238-1.381,0.109c-0.526-0.145-0.973-0.453-1.182-0.841  c-0.072-0.157-0.1-0.319-0.078-0.503l0.387-3.939L140.596,0l-0.646,3.908c-0.024,0.167-0.086,0.312-0.182,0.435  c-0.264,0.324-0.812,0.533-1.396,0.533l-0.121-0.003c-0.479-0.031-0.915-0.201-1.161-0.448c-0.142-0.148-0.225-0.318-0.256-0.531  V3.892l0,0l-0.001-0.004h0.001l-0.646-3.887l-3.589,0.471l0.384,3.928h-0.002c0.028,0.211-0.009,0.402-0.108,0.579  c-0.182,0.312-0.562,0.587-1.012,0.737c-0.556,0.178-1.154,0.158-1.566-0.1c-0.146-0.105-0.253-0.238-0.323-0.409l-0.136,0.052  l0.132-0.059l-1.627-3.586l-3.345,1.385l1.385,3.689l0,0l0.041,0.117c0.037,0.131,0.044,0.262,0.014,0.439  c-0.09,0.39-0.44,0.805-0.906,1.078c-0.473,0.27-0.913,0.401-1.434,0.238c-0.131-0.049-0.241-0.12-0.342-0.223  c-0.023-0.025-0.046-0.051-0.074-0.087l-0.002-0.001l-2.502-3.045L118.3,7.407l2.299,3.213c0.114,0.147,0.178,0.308,0.194,0.523  c0.009,0.402-0.224,0.893-0.602,1.273c-0.384,0.375-0.888,0.592-1.317,0.597c-0.167-0.017-0.323-0.077-0.471-0.186l-3.218-2.304  l-2.205,2.871l3.048,2.506l-0.001,0.002c0.168,0.129,0.278,0.291,0.333,0.484c0.092,0.346,0.021,0.807-0.188,1.227  c-0.287,0.564-0.763,0.979-1.201,1.053c-0.166,0.025-0.336,0.006-0.502-0.062v0.002l-3.693-1.388l-1.386,3.344l3.579,1.625  l0.139-0.293l-0.125,0.3c0.164,0.067,0.295,0.168,0.393,0.303c0.248,0.348,0.302,0.945,0.139,1.514  c-0.148,0.49-0.434,0.896-0.755,1.083c-0.185,0.104-0.377,0.136-0.585,0.11v0.002l-3.924-0.383l-0.477,3.588l3.894,0.645v0.002  c0.207,0.027,0.381,0.109,0.524,0.248c0.282,0.278,0.459,0.783,0.461,1.311c-0.004,0.533-0.174,1.02-0.447,1.296  c-0.147,0.144-0.317,0.229-0.535,0.261c0,0-0.001,0-0.002,0l-0.006,0.002c-0.003,0-0.006,0-0.008,0l-3.879,0.645l0.472,3.591  l3.94-0.388v0.002c0.18-0.021,0.338,0,0.541,0.098c0.352,0.191,0.658,0.636,0.801,1.152c0.148,0.565,0.088,1.129-0.189,1.511  c-0.068,0.078-0.149,0.146-0.263,0.207l-3.687,1.68l1.385,3.345l3.687-1.386l0.009-0.003c0.173-0.07,0.28-0.1,0.551-0.054  c0.416,0.099,0.86,0.495,1.129,1.003c0.226,0.439,0.303,0.914,0.211,1.26c-0.057,0.199-0.164,0.357-0.339,0.494l-3.042,2.501  l2.202,2.874l3.208-2.296l0.001,0.001c0.167-0.128,0.35-0.192,0.553-0.196c0.396,0,0.857,0.222,1.233,0.589  c0.385,0.385,0.619,0.873,0.613,1.312c-0.015,0.179-0.076,0.339-0.197,0.5l-2.293,3.205l2.869,2.205l2.509-3.051l0.001,0.002  c0.112-0.146,0.248-0.246,0.453-0.322c0.383-0.112,0.927-0.014,1.389,0.25c0.471,0.277,0.82,0.689,0.919,1.117  c0.028,0.17,0.011,0.33-0.052,0.492l-0.012,0.029h0.002l-1.385,3.688l3.344,1.387l1.631-3.592l0.003-0.008h0.001  c0.08-0.189,0.205-0.334,0.373-0.437c0.342-0.198,0.888-0.233,1.383-0.104c0.524,0.145,0.969,0.453,1.177,0.84  c0.073,0.158,0.099,0.324,0.074,0.52l-0.384,3.921l3.589,0.476l0.649-3.916h0.001c0.03-0.198,0.113-0.365,0.247-0.504  c0.265-0.268,0.727-0.438,1.29-0.457c0.561,0,1.079,0.186,1.377,0.513c0.104,0.127,0.168,0.269,0.195,0.438l0.652,3.924l3.588-0.473  l-0.385-3.927V56.83v-0.001c-0.021-0.174,0-0.335,0.086-0.535l0.002-0.002c0.196-0.375,0.672-0.692,1.23-0.83  c0.495-0.112,0.999-0.063,1.311,0.117c0.178,0.106,0.305,0.254,0.385,0.448l0,0l1.633,3.591l3.344-1.386l-1.391-3.696  c-0.068-0.171-0.088-0.345-0.049-0.56c0.096-0.386,0.441-0.795,0.901-1.065c0.465-0.267,0.909-0.394,1.42-0.246  c0.173,0.062,0.312,0.165,0.429,0.315l0.088-0.057l-0.08,0.064l2.498,3.039l2.871-2.204l-2.295-3.208l0.002-0.001  c-0.127-0.166-0.19-0.347-0.195-0.546c-0.004-0.394,0.227-0.873,0.595-1.248c0.377-0.373,0.83-0.594,1.331-0.603  c0.175,0.019,0.329,0.08,0.473,0.19v-0.002l3.211,2.296l2.205-2.87l-3.062-2.518c-0.137-0.107-0.233-0.237-0.303-0.414l-0.004-0.014  c-0.133-0.423-0.004-1.023,0.32-1.525c0.266-0.396,0.628-0.688,0.965-0.777c0.196-0.049,0.385-0.038,0.588,0.041l3.698,1.389  l1.39-3.343l-3.609-1.639h0.001c-0.144-0.062-0.26-0.147-0.394-0.31l-0.029-0.053c-0.203-0.341-0.246-0.875-0.113-1.386  C163.393,36.768,163.695,36.323,164.077,36.107z"/>
<polygon fill="#343432" points="152.468,25.938 153.538,29.236 157.004,29.236 154.2,31.273 155.271,34.57 152.468,32.532   149.664,34.57 150.732,31.273 147.932,29.236 151.396,29.236 "/>
<polygon fill="#343432" points="131.257,28.535 131.257,13.333 135.479,13.333 135.479,48.077 131.257,48.077 131.257,32.361   127.193,32.361 127.193,48.077 122.972,48.077 122.972,13.333 127.193,13.333 127.193,28.535 "/>
<path fill="#343432" d="M152.641,37.154v6.029c0,3.434-1.695,5.129-5.129,5.129h-2.091c-3.433,0-5.129-1.695-5.129-5.129V18.226  c0-3.434,1.696-5.129,5.129-5.129h2.052c3.434,0,5.09,1.656,5.09,5.09v5.24h-4.143v-5.004c0-1.104-0.514-1.617-1.579-1.617h-0.71  c-1.104,0-1.617,0.513-1.617,1.617v24.563c0,1.104,0.514,1.617,1.617,1.617h0.789c1.064,0,1.578-0.513,1.578-1.617v-5.832H152.641z"/>
<g>
	<path fill="#454545" d="M58.173,31.416C58.173,47.203,45.373,60,29.586,60C13.799,60,1,47.203,1,31.416   C1,15.628,13.799,2.83,29.586,2.83C45.373,2.83,58.173,15.628,58.173,31.416"/>
	<path fill="#FFFFFF" d="M16.654,44.142c-2.18-1.77-4.26-2.809-7.305-1.935c0.505,1.582,1.324,2.918,3.121,4.12   c3.41,2.281,7.908,2.766,7.908,2.766S19.845,46.73,16.654,44.142"/>
	<path fill="#FFFFFF" d="M37.545,28.268c-6.134,1.872-8.958,5.458-11.852,9.725c2.169,0.506,10.572,0.686,14.035-0.311   c8.268-2.378,13.512-10.578,13.512-10.578S44.818,26.039,37.545,28.268"/>
	<path fill="#FFFFFF" d="M27.154,39.842c-4.742-1.14-7.304,0.496-10.238,2.638c2.203,1.298,6.221,3.08,8.886,3.722   c5.626,1.348,12.468-0.753,12.468-0.753S32.781,41.185,27.154,39.842"/>
	<path fill="#FFFFFF" d="M43.269,16.743c-1.953,6.514-7.043,8.982-11.287,11.212c0.088-3.514,0.197-9.612,1.295-13.271   C35.592,6.967,43.064,0,43.064,0S45.59,9.026,43.269,16.743"/>
	<path fill="#FFFFFF" d="M28.841,28.399c-0.765,4.319-3.685,6.328-5.656,8.114c-0.237-2.256-0.122-6.635,0.308-9.061   c0.913-5.124,4.891-10.131,4.891-10.131S29.76,23.275,28.841,28.399"/>
	<path fill="#FFFFFF" d="M20.834,35.496c-0.611,3.209-2.509,4.125-4.468,5.328c-0.145-1.703-0.079-4.646,0.266-6.448   c0.726-3.805,3.688-7.401,3.688-7.401S21.565,31.691,20.834,35.496"/>
</g>
</svg>