<?xml version="1.0" encoding="UTF-8"?>
<svg version="1.1" id="Layer_1" xmlns="http://www.w3.org/2000/svg" xmlns:xlink="http://www.w3.org/1999/xlink" x="0px" y="0px" viewBox="-48 -48 120 120" enable-background="new -48 -48 120 120" xml:space="preserve">
<path fill="#FFFFFF" d="M49.848,10.765c0.605-0.62,1.767-1.794,2.349-2.261c0.811-0.635,5.336,0.066,8.778-2.085  c3.433-2.153,7.636-7.228,8.759-9.337c1.138-2.111,1.147-3.464,1.455-6c0.308-2.534,0.689-5.219,0.689-5.219s-3.74,0.585-6.352,1.24  c-2.603,0.654-4.458,1.831-5.991,3.115c-1.538,1.279-1.182,0.181-3.075,2.004c-1.904,1.826-3.77,4.98-4.692,8.015  c-0.942,3.039-0.386,7.018-0.576,7.719c-0.122,0.471-0.796,1.179-1.24,1.611c0.176-2.256,0.352-4.565,0.454-6.005  c0.186-2.844,0.112-5.934,0.01-7.76c-0.054-0.635-0.146-1.309-0.234-1.968c0.601-0.601,2.539-2.499,3.516-3.29  c1.187-0.945,4.657-0.769,7.382-2.81c2.598-1.945,6.728-7.479,5.985-12.452c-0.741-4.975-3.148-8.386-3.148-8.386  s-5.039,1.199-8.041,3.655c-2.998,2.456-6.377,7.919-5.85,11.935c0.532,4.008,3.003,5.634,2.939,6.943  c-0.059,1.125-2.314,2.7-2.979,3.134c-0.103-0.72-0.176-1.354-0.127-1.809c0.166-1.604-0.85-4.399-0.85-4.399  s-1.064-2.385-1.226-3.135c-0.161-0.747,0.376-2.436,0.913-4.064c0.537-1.641-0.254-4.904-0.098-6.801  c0.166-1.889-0.527-5.393-0.635-6.264c-0.098-0.859-1.332-3.835-1.786-4.539c-0.444-0.7-0.635-1.325-1.231-2.26  c-0.596-0.93-1.543-1.416-2.295-2.095c-0.762-0.681-1.602-1.555-2.129-2.209c-0.527-0.657-1.836-1.045-2.451-1.282  c-0.63-0.244-1.669-1.704-1.669-1.704s-0.054,1.675-0.278,2.471c-0.239,0.793-0.894,1.265-1.24,3.134  c-0.342,1.875-0.679,3.45-0.718,5.09c-0.049,1.633,0.41,5.09,1.182,6.794c0.781,1.704,1.874,3.798,3.817,6.489  c1.934,2.69,7.163,6.579,7.724,7.355c0.557,0.774,1.353,3.974,1.353,3.974s0.581,2.615,0.669,5.769  c-0.083,0.02-0.146,0.046-0.249,0.071c-0.483,0.095-1.688-0.806-2.313-1.45c-0.625-0.649-0.454-1.494-1.069-3.186  c-0.62-1.699-2.578-5.803-4.985-8.468c-2.412-2.668-5.522-3.574-8.402-3.933c-2.871-0.361-8.183,1.762-8.183,1.762  s0.527,3.61,1.675,6.691c1.157,3.073,6.937,6.599,9.799,7.672c2.855,1.072,9.784,0.191,10.429,0.295  c0.654,0.105,1.991,1.374,2.528,1.45c0.327,0.046,0.605-0.044,0.771-0.115c0,0.02,0,0.044,0,0.071  c-0.005,2.573,0.645,3.42,0.43,5.493c-0.215,2.075,0.146,4.211-0.288,5.729c-0.298,1.082-0.747,1.85-0.884,2.47  c-0.293-0.105-0.625-0.264-0.791-0.474c-0.342-0.4-0.888-1.745-1.552-3.996c-0.669-2.253-3.984-5.949-6.089-7.872  c-2.09-1.926-8.295-3.352-9.862-2.837c-1.567,0.515-5.155,0.09-5.155,0.09s0.952,4.011,1.631,5.734  c0.664,1.726,0.264,2.542,1.02,4.04c0.742,1.489,1.172,2.104,3.477,4.084c2.314,1.99,5.615,2.729,8.266,2.542  c2.661-0.195,7.095-0.967,7.943-0.84c0.859,0.12,1.113,0.515,1.113,0.515l0.059-0.112c0.259,0.762,0.371,2.075,0.293,3.41  c-0.102,1.421-0.322,5.032-0.967,7.833c-0.654,2.803-1.454,7.017-2.03,7.568c-0.576,0.547-0.977,0.576-1.133,0.957  c0,0,0,0.005,0,0.01c-0.205-0.137-0.439-0.352-0.674-0.732c-0.522-0.889-0.103-2.852-0.908-6.895  c-0.806-4.032-5.61-8.705-9.042-10.426c-3.428-1.709-10.243-1.804-10.243-1.804s0.586,3.854,1.016,4.9  c0.439,1.054,0.068,1.818,1.045,4.733c0.991,2.919,4.14,5.692,7.685,7.88c3.545,2.187,9.325,1.655,9.833,2.187  c0.4,0.41,0.879,0.956,1.064,1.171c-0.156,0.889-0.391,2.095-0.791,2.744c-0.615,1.006-1.987,5.342-4.287,8.324  c-1.123,1.445-1.919,2.573-2.455,3.34c-0.268-0.259-1.626-1.543-2.09-2.241c-0.523-0.781,1.162-3.964,0.854-7.929  c-0.317-3.975-2.432-5.907-5.205-8.31c-2.778-2.397-8.954-2.168-8.954-2.168s-0.566,2.456-0.728,5.498  c-0.156,3.036,1.841,6.581,4.487,9.018C27.643,40,32.184,39.946,33.6,41.67c0.708,0.85,2.559,2.686,2.583,2.715  c-0.244,0.366-0.366,0.571-0.366,0.571s-0.918,1.753-2.148,3.032c-0.899,0.932-4.175,3.876-7.065,5.995  c-0.298-0.488-0.718-1.25-0.879-1.787c-0.278-0.859,1.205-1.855,0.908-7.646c-0.264-5.107-6.147-8.329-7.754-9.413  c-1.587-1.084-3.832-2.803-3.832-2.803s-3.938,6.957,0.215,14.032c2.294,3.93,9.345,5.497,9.701,6.142  c0.239,0.43,0.64,1.401,0.884,2.017c-0.801,0.561-1.558,1.04-2.192,1.362c-3.022,1.514-3.403,2.07-5.806,3.188  c-2.392,1.118-2.943,0.581-6.798,2.993c-3.864,2.397-9.169,6.566-9.694,7.245c0,0,0.674,2.065,0.994,2.461  c0.325,0.4,0.647,0.19,0.891-0.015c0.254-0.21-0.1-1.079,0.535-1.616c0.644-0.537,5.39-4.726,6.93-5.78  c1.548-1.055,3.96-2.422,5.796-3.115c1.19-0.449,3.637-1.558,5.536-2.51c0.176,0.132,0.396,0.283,0.581,0.303  c0.386,0.039,2.466-0.078,3.096,0.615c0.625,0.688,2.948,5.137,4.477,6.04c1.533,0.908,4.424,3.1,7.602,2.192  c3.164-0.908,5.19-0.781,6.67-1.846c1.475-1.064,2.231-2.993,2.231-2.993s-0.737-0.83-1.177-1.802  c-0.439-0.967-2.92-4.057-4.653-4.921c-1.738-0.869-6.117-2.226-8.632-1.265c-2.52,0.972-4.922,3.179-5.8,3.563  c-0.898,0.376-3.018-0.141-3.359-0.341c-0.019-0.015-0.039-0.029-0.059-0.044c0.615-0.312,1.104-0.601,1.387-0.786  c1.147-0.786,7.152-5.43,8.656-6.821c0.83-0.762,1.958-2.006,3.057-3.339c0.654,0.088,1.884,0.264,2.191,0.44  c0.42,0.249,3.647,3.441,5.645,4.232c2.002,0.776,6.757,2.866,9.95,1.099c3.202-1.767,5.419-5.014,5.419-5.014  s-0.879-2.046-2.266-3.071c-1.386-1.035-5.585-2.705-7.353-2.686c-1.777,0.01-3.847,0-5.683,0.728  c-1.841,0.727-4.951,3.413-5.356,3.647c-0.317,0.176-1.284-0.288-1.664-0.493c0.575-0.737,1.112-1.465,1.542-2.119  c1.445-2.192,3.34-4.956,3.872-5.404c0.161-0.137,0.288-0.43,0.396-0.801c0.771-0.137,2.1-0.371,2.695-0.464  c0.869-0.137,2.753,1.517,4.56,1.889c1.807,0.376,3.272-0.024,5.01,0.024c1.738,0.034,3.944,1.313,7.958,0.376  c3.993-0.938,7.943-5.058,7.943-5.058s-0.669-0.176-1.147-0.718c-0.488-0.542-0.869-1.079-1.689-2.285  c-0.82-1.206-2.069-2.026-4.686-3.568c-2.598-1.543-6.62-0.225-7.675,0.166c-1.045,0.391-2.788,0.459-4.814,1.884  c-2.031,1.431-4.442,5.693-5.385,6.299c-0.854,0.542-2.222,0.273-2.456,0.21c0.156-0.64,0.332-1.318,0.596-1.865  c0.596-1.226,2.93-6.811,3.681-8.734c0.83-0.474,2.598-1.509,3.047-1.836c0.605-0.44,1.299-0.493,3.237,0.102  c1.938,0.591,6.42,0.942,9.281-0.513c2.852-1.465,6.713-6.322,7.592-8.617c0.913-2.314,1.44-6.149,1.44-6.149  s-1.953,0.061-2.876,0.01c-0.942-0.049-3.275-0.684-6.327-0.305c-3.042,0.376-6.825,1.621-9.223,4.641  c-2.393,3.024-2.588,9.054-3.389,9.923c-0.566,0.625-1.719,1.142-2.334,1.401c0.562-2.261,1.494-7.348,1.66-9.511  C49.594,14.129,49.716,12.516,49.848,10.765z"/>
<path fill="#FFFFFF" d="M-25.845,10.765c-0.61-0.62-1.77-1.794-2.351-2.261c-0.81-0.635-5.339,0.066-8.778-2.085  c-3.43-2.153-7.636-7.228-8.759-9.337c-1.135-2.111-1.145-3.464-1.455-6c-0.31-2.534-0.691-5.224-0.691-5.224  s3.745,0.585,6.359,1.24c2.604,0.654,4.455,1.829,5.991,3.115c1.538,1.279,1.179,0.181,3.083,2.004  c1.895,1.826,3.759,4.98,4.69,8.01c0.94,3.039,0.386,7.018,0.576,7.719c0.125,0.471,0.801,1.179,1.24,1.611  c-0.176-2.256-0.352-4.565-0.452-6.005c-0.188-2.844-0.115-5.93-0.01-7.755c0.051-0.635,0.142-1.309,0.237-1.968  c-0.606-0.601-2.542-2.5-3.521-3.29c-1.186-0.94-4.66-0.764-7.375-2.805c-2.6-1.945-6.73-7.479-5.983-12.452  c0.74-4.975,3.144-8.386,3.144-8.386s5.048,1.199,8.044,3.655c2.995,2.456,6.374,7.919,5.849,11.935  c-0.54,4.008-3.005,5.634-2.94,6.943c0.059,1.125,2.315,2.7,2.981,3.134c0.093-0.715,0.168-1.354,0.125-1.809  c-0.166-1.604,0.849-4.399,0.849-4.399s1.064-2.385,1.226-3.135c0.159-0.752-0.381-2.436-0.916-4.069  c-0.535-1.641,0.254-4.904,0.095-6.801c-0.166-1.894,0.53-5.393,0.64-6.269c0.09-0.859,1.326-3.831,1.785-4.534  c0.444-0.7,0.635-1.325,1.23-2.26c0.595-0.93,1.545-1.416,2.295-2.095c0.759-0.681,1.604-1.555,2.129-2.209  c0.525-0.657,1.835-1.045,2.451-1.282c0.615-0.239,1.655-1.699,1.655-1.699s0.054,1.675,0.278,2.471  c0.237,0.793,0.891,1.265,1.24,3.134c0.342,1.875,0.676,3.45,0.715,5.09c0.051,1.633-0.41,5.09-1.179,6.794  c-0.781,1.704-1.875,3.798-3.821,6.489c-1.933,2.69-7.16,6.583-7.724,7.355c-0.564,0.769-1.35,3.974-1.35,3.974  s-0.581,2.615-0.669,5.769c0.083,0.02,0.149,0.046,0.249,0.071c0.481,0.095,1.689-0.806,2.314-1.45  c0.625-0.649,0.452-1.494,1.069-3.186c0.62-1.699,2.58-5.803,4.985-8.468c2.412-2.668,5.524-3.574,8.4-3.933  c2.875-0.361,8.18,1.757,8.18,1.757s-0.515,3.61-1.677,6.696c-1.155,3.073-6.938,6.599-9.799,7.672  c-2.854,1.064-9.784,0.186-10.429,0.291c-0.654,0.105-1.99,1.374-2.529,1.45c-0.325,0.046-0.605-0.044-0.769-0.115  c0,0.02,0,0.044,0,0.071c0.005,2.573-0.646,3.417-0.432,5.493c0.218,2.075-0.143,4.211,0.291,5.729c0.3,1.082,0.745,1.85,0.886,2.47  c0.291-0.105,0.625-0.264,0.789-0.474c0.342-0.4,0.891-1.745,1.55-3.996c0.671-2.253,3.984-5.949,6.091-7.873  c2.089-1.926,8.297-3.352,9.862-2.837c1.564,0.515,5.156,0.09,5.156,0.09s-0.959,4.006-1.636,5.729  c-0.664,1.731-0.264,2.546-1.02,4.04C-4.124,3.795-4.549,4.411-6.858,6.39c-2.314,1.99-5.615,2.729-8.264,2.542  c-2.661-0.195-7.094-0.967-7.946-0.842c-0.859,0.122-1.108,0.517-1.108,0.517l-0.061-0.112c-0.259,0.762-0.376,2.075-0.291,3.41  c0.1,1.421,0.32,5.032,0.967,7.834c0.654,2.803,1.455,7.017,2.029,7.568c0.576,0.547,0.974,0.576,1.135,0.957c0,0,0,0.005,0,0.01  c0.205-0.137,0.439-0.351,0.669-0.732c0.525-0.889,0.105-2.851,0.911-6.894c0.806-4.032,5.61-8.705,9.04-10.426  c3.43-1.711,10.243-1.804,10.243-1.804s-0.583,3.854-1.013,4.9c-0.442,1.054-0.071,1.818-1.045,4.733  c-0.991,2.919-4.14,5.692-7.685,7.88c-3.544,2.188-9.315,1.655-9.831,2.188c-0.405,0.41-0.879,0.956-1.069,1.171  c0.161,0.884,0.39,2.095,0.791,2.744c0.615,1.006,1.99,5.342,4.289,8.324c1.121,1.445,1.919,2.573,2.454,3.34  c0.271-0.259,1.631-1.543,2.09-2.241c0.519-0.781-1.16-3.964-0.85-7.929c0.315-3.979,2.431-5.907,5.205-8.31  c2.775-2.397,8.954-2.168,8.954-2.168s0.566,2.456,0.725,5.498c0.156,3.036-1.846,6.581-4.484,9.018  c-2.649,2.426-7.189,2.372-8.61,4.096c-0.703,0.85-2.553,2.685-2.578,2.715c0.244,0.366,0.369,0.571,0.369,0.571  s0.915,1.753,2.146,3.032c0.893,0.932,4.184,3.876,7.065,5.995c0.295-0.488,0.715-1.25,0.879-1.787  c0.276-0.859-1.204-1.855-0.911-7.646c0.266-5.107,6.149-8.329,7.755-9.413c1.589-1.084,3.831-2.803,3.831-2.803  s3.937,6.957-0.215,14.032c-2.295,3.93-9.345,5.497-9.701,6.142c-0.234,0.43-0.64,1.401-0.884,2.017  c0.801,0.561,1.56,1.04,2.194,1.362c3.02,1.514,3.406,2.07,5.805,3.188c2.395,1.118,2.944,0.581,6.798,2.993  c3.865,2.397,9.167,6.566,9.694,7.245c0,0-0.674,2.065-0.996,2.461c-0.322,0.4-0.645,0.19-0.889-0.015  c-0.254-0.21,0.098-1.079-0.537-1.616c-0.645-0.537-5.39-4.726-6.928-5.78c-1.55-1.06-3.959-2.422-5.798-3.115  c-1.186-0.449-3.635-1.558-5.534-2.51c-0.176,0.132-0.395,0.283-0.581,0.303c-0.386,0.039-2.465-0.078-3.095,0.615  c-0.625,0.688-2.949,5.137-4.479,6.04c-1.536,0.908-4.423,3.1-7.6,2.192c-3.164-0.908-5.19-0.781-6.669-1.846  c-1.475-1.065-2.234-2.993-2.234-2.993s0.74-0.83,1.179-1.802c0.439-0.967,2.919-4.057,4.65-4.921  c1.738-0.869,6.12-2.227,8.634-1.27c2.52,0.976,4.919,3.183,5.803,3.568c0.896,0.376,3.015-0.141,3.357-0.341  c0.019-0.015,0.039-0.029,0.059-0.044c-0.615-0.312-1.104-0.6-1.384-0.786c-1.15-0.786-7.155-5.43-8.659-6.821  c-0.83-0.762-1.955-2.006-3.056-3.339c-0.654,0.088-1.885,0.264-2.195,0.439c-0.415,0.244-3.644,3.441-5.644,4.232  c-1.999,0.776-6.754,2.866-9.948,1.099c-3.205-1.768-5.419-5.014-5.419-5.014s0.878-2.046,2.263-3.076  c1.387-1.03,5.585-2.7,7.355-2.681c1.779,0.01,3.85,0,5.683,0.727c1.841,0.728,4.951,3.413,5.356,3.648  c0.32,0.176,1.284-0.288,1.665-0.493c-0.576-0.737-1.111-1.465-1.545-2.119c-1.445-2.192-3.339-4.956-3.869-5.404  c-0.161-0.137-0.291-0.43-0.396-0.801c-0.774-0.137-2.099-0.371-2.695-0.464c-0.869-0.137-2.754,1.518-4.56,1.889  c-1.804,0.376-3.269-0.024-5.009,0.024c-1.738,0.034-3.95,1.314-7.958,0.376c-3.994-0.937-7.943-5.058-7.943-5.058  s0.669-0.176,1.145-0.718c0.488-0.542,0.869-1.079,1.689-2.285c0.82-1.206,2.07-2.026,4.689-3.568  c2.6-1.543,6.618-0.225,7.675,0.166c1.045,0.391,2.788,0.459,4.814,1.884c2.028,1.431,4.443,5.693,5.385,6.299  c0.854,0.537,2.219,0.273,2.453,0.21c-0.154-0.64-0.33-1.318-0.596-1.865c-0.593-1.23-2.929-6.811-3.679-8.734  c-0.83-0.474-2.6-1.509-3.044-1.836c-0.605-0.444-1.301-0.493-3.24,0.102c-1.955,0.581-6.439,0.942-9.306-0.522  c-2.849-1.455-6.698-6.317-7.587-8.612c-0.881-2.3-1.411-6.135-1.411-6.135s1.951,0.061,2.876,0.01  c0.939-0.049,3.278-0.684,6.327-0.305c3.042,0.376,6.826,1.621,9.22,4.641c2.395,3.024,2.59,9.054,3.389,9.923  c0.571,0.625,1.721,1.142,2.336,1.401c-0.561-2.261-1.494-7.348-1.66-9.511C-25.591,14.129-25.716,12.516-25.845,10.765z"/>
</svg>